HIERARCHY
ROOT Hips
{
  OFFSET 90.7885 88.945 -76.2838
  CHANNELS 6 Xposition Yposition Zposition Zrotation Xrotation Yrotation
  JOINT LeftUpLeg
  {
    OFFSET 8.64259 1.95398 -2.38835
    CHANNELS 3 Zrotation Xrotation Yrotation
    JOINT LeftLeg
    {
      OFFSET 43.7702 0 0
      CHANNELS 3 Zrotation Xrotation Yrotation
      JOINT LeftFoot
      {
        OFFSET 40.6238 0 0
        CHANNELS 3 Zrotation Xrotation Yrotation
        JOINT LeftToeBase
        {
          OFFSET 12.7242 0 0
          CHANNELS 3 Zrotation Xrotation Yrotation
          End Site
          {
            OFFSET 0 0 0
          }
        }
      }
    }
  }
  JOINT RightUpLeg
  {
    OFFSET -8.2249 1.95398 -2.59336
    CHANNELS 3 Zrotation Xrotation Yrotation
    JOINT RightLeg
    {
      OFFSET 43.5653 0 0
      CHANNELS 3 Zrotation Xrotation Yrotation
      JOINT RightFoot
      {
        OFFSET 40.6238 0 0
        CHANNELS 3 Zrotation Xrotation Yrotation
        JOINT RightToeBase
        {
          OFFSET 12.7242 0 0
          CHANNELS 3 Zrotation Xrotation Yrotation
          End Site
          {
            OFFSET 0 0 0
          }
        }
      }
    }
  }
  JOINT Spine
  {
    OFFSET 0.165834 0.87714 6.61349
    CHANNELS 3 Zrotation Xrotation Yrotation
    JOINT Spine1
    {
      OFFSET 7.38963 1.71661e-005 0
      CHANNELS 3 Zrotation Xrotation Yrotation
      JOINT Spine2
      {
        OFFSET 11.9445 1.14441e-005 0
        CHANNELS 3 Zrotation Xrotation Yrotation
        JOINT Spine3
        {
          OFFSET 14.7254 4.19617e-005 0
          CHANNELS 3 Zrotation Xrotation Yrotation
          JOINT Spine4
          {
            OFFSET 10.9679 0 0
            CHANNELS 3 Zrotation Xrotation Yrotation
            JOINT RightShoulder
            {
              OFFSET 2.46616 -1.6653 3.69651
              CHANNELS 3 Zrotation Xrotation Yrotation
              JOINT RightArm
              {
                OFFSET 13.0012 0 0
                CHANNELS 3 Zrotation Xrotation Yrotation
                JOINT RightForeArm
                {
                  OFFSET 28.7848 1.52588e-005 0
                  CHANNELS 3 Zrotation Xrotation Yrotation
                  JOINT RightHand
                  {
                    OFFSET 26.5688 1.52588e-005 0
                    CHANNELS 3 Zrotation Xrotation Yrotation
                    End Site
                    {
                      OFFSET 0 0 0
                    }
                  }
                }
              }
            }
            JOINT LeftShoulder
            {
              OFFSET 2.38034 -1.29275 -3.7523
              CHANNELS 3 Zrotation Xrotation Yrotation
              JOINT LeftArm
              {
                OFFSET 16.3182 6.10352e-005 0
                CHANNELS 3 Zrotation Xrotation Yrotation
                JOINT LeftForeArm
                {
                  OFFSET 27.0901 0 0
                  CHANNELS 3 Zrotation Xrotation Yrotation
                  JOINT LeftHand
                  {
                    OFFSET 24.5451 1.52588e-005 0
                    CHANNELS 3 Zrotation Xrotation Yrotation
                    End Site
                    {
                      OFFSET 0 0 0
                    }
                  }
                }
              }
            }
            JOINT Neck
            {
              OFFSET 5.0226 -0.0266342 0
              CHANNELS 3 Zrotation Xrotation Yrotation
              JOINT Head
              {
                OFFSET 6.69363 2.86102e-005 0
                CHANNELS 3 Zrotation Xrotation Yrotation
                End Site
                {
                  OFFSET 0 0 0
                }
              }
            }
          }
        }
      }
    }
  }
}
MOTION
Frames:	12
Frame Time:	0.0416667
21.0602 96.7176 -12.0042 153.086 -81.5374 153.369 -179.317 16.4629 89.037 -8.42191 -21.2337 -2.48653 62.2834 3.01924 -1.97109 17.8544 -0.0754467 1.82055 169.457 -9.07803 87.4247 -20.9597 -11.4636 -0.892291 78.6728 -7.86016 -1.81484 26.9808 -1.09477 2.84898 1.53427 8.19997 -90.1059 10.483 3.00763 -0.476971 -1.18459 2.98372 -0.609001 -23.7474 3.01179 0.449836 -3.73478 3.0118 0.449835 88.7502 -26.6164 -110.715 26.6495 -10.0744 -16.4696 -3.11467 -28.262 -23.7445 -26.2366 -0.703945 -8.84775 -86.4927 -58.6362 85.2293 -26.4834 13.2366 10.072 8.34927 9.00118 -17.9723 -5.5287 -0.0141194 -7.11387 -4.74035 -2.97177 6.45831 -1.61105 -3.60507 -4.76585 
22.8351 95.98 -4.76412 150.592 -80.5947 151.291 -178.948 14.3624 87.9551 -9.97906 -24.713 -3.99094 57.9799 1.80455 0.104553 16.2537 0.372062 1.51658 167.59 -14.6007 85.3922 -19.9188 -12.7528 -0.573761 77.6421 -8.18573 -2.49406 32.7994 -1.67008 3.31343 1.62064 8.07901 -90.1188 10.7264 3.1726 -0.527786 -0.940821 3.1463 -0.667052 -23.5068 3.18441 0.451107 -3.49418 3.1844 0.4511 88.1969 -27.4673 -111.452 28.6934 -9.25409 -16.9106 -1.47165 -26.1445 -22.816 -27.5737 -0.54457 -8.81706 -85.0915 -58.2775 87.11 -27.5744 10.8765 10.664 8.54012 7.07674 -17.818 -4.96527 -0.0379662 -6.69209 -5.46406 -1.43855 6.63891 -2.28341 -2.03498 -3.46006 
25.1296 96.1517 2.82103 143.98 -79.6954 144.651 -177.524 17.0225 86.4056 -23.5004 -17.9575 -4.9749 64.4362 1.6449 1.28369 1.37243 2.97116 0.995881 165.461 -15.3317 82.3814 -25.2722 -15.3407 -0.359963 69.0744 -4.65426 -1.04715 44.5974 -2.10048 2.33772 1.61745 7.87807 -89.9967 11.126 3.22104 -0.306227 -0.540993 3.20444 -0.447849 -23.1074 3.16401 0.676989 -3.09475 3.164 0.676984 87.2722 -29.3978 -112.396 32.7373 -9.80125 -15.5296 -0.231231 -26.0182 -19.4284 -25.1565 -0.386499 -9.90001 -84.0164 -56.8435 88.45 -28.1161 8.71085 9.23315 8.89225 6.08309 -17.0567 -3.76725 -0.0682663 -6.14391 -5.19674 0.502699 6.01902 -3.66646 -0.0338346 -2.34843 
28.0455 96.1558 9.22736 141.729 -77.4061 140.713 -177.416 13.627 83.4582 -29.0721 -16.9987 -5.78957 71.3124 4.19242 1.01137 1.33278 2.67952 1.29266 165.915 -6.7701 78.1885 -46.2783 -21.5413 -2.37128 57.7815 0.356675 0.0961234 38.5808 -2.84256 6.21868 1.57791 7.97605 -89.8033 10.9243 3.23256 0.0867285 -0.742606 3.23324 -0.055785 -23.3076 3.0569 1.05515 -3.2949 3.05689 1.05515 86.762 -29.7284 -113.24 36.8768 -11.514 -12.6906 2.04377 -28.1078 -17.1221 -24.307 -0.421532 -10.5446 -84.0764 -56.2006 88.3021 -26.1833 8.20373 4.89109 9.21727 5.79173 -16.9037 -2.83573 -0.0788174 -6.46869 -4.99558 2.56552 7.37323 -3.52485 1.86903 -1.9027 
30.8023 95.8388 14.188 133.962 -74.0204 131.828 -177.88 10.1606 81.2682 -32.0798 -14.0644 -6.21168 75.6993 5.51208 1.87124 3.19129 3.37598 0.366808 172.307 2.89635 78.4651 -64.7195 -24.2195 -5.16046 58.4416 0.0713941 0.983594 26.4131 -1.40839 3.66566 1.37472 8.13146 -89.7231 10.609 2.86537 0.291276 -1.05878 2.8754 0.164768 -23.6161 2.64526 1.13955 -3.6035 2.64526 1.13955 87.2744 -29.7662 -112.223 40.14 -12.008 -9.74239 1.48987 -29.6441 -17.6033 -23.1006 -0.518875 -10.7472 -84.8679 -56.7828 87.2517 -20.9516 7.59646 -1.06628 11.0861 8.59381 -19.5622 -2.21068 -0.0953443 -7.34051 -5.52186 4.45396 9.96026 -3.09909 3.54012 -1.80238 
33.0755 96.0668 18.0882 119.219 -67.6879 118.193 -178.383 7.37661 81.1118 -32.1688 -6.56796 -4.68157 78.023 6.76947 2.73287 3.31496 3.88775 -0.127985 178.635 10.1285 82.039 -67.9627 -15.2983 -6.004 64.5436 -3.09707 -2.58943 21.8302 -2.27933 6.0402 0.920175 8.14011 -89.9257 10.5949 1.86689 -0.0207313 -1.0747 1.86417 -0.102913 -23.62 1.78678 0.541487 -3.60734 1.78678 0.541473 88.5278 -30.0352 -109.649 42.0101 -10.5847 -5.72931 1.88176 -28.1365 -16.6926 -23.9647 -0.429998 -10.5529 -85.8035 -58.1712 86.1171 -13.9394 7.40137 -8.61952 12.0768 10.0718 -21.2639 -2.09199 -0.0991345 -7.88322 -6.8084 5.97235 10.3467 -3.05664 5.11834 0.746133 
35.6107 97.0587 21.7356 108.055 -56.376 108.583 -179.101 2.60904 82.1001 -28.9218 4.38022 -1.83246 77.8951 7.32373 2.05266 3.763 3.05511 0.57383 -178.215 12.9603 85.6205 -57.8459 -6.16779 -7.3744 72.6348 -7.40891 -3.92551 12.1199 -1.02244 4.64747 0.178118 8.17393 -90.1882 10.5266 0.26855 -0.39712 -1.14443 0.250831 -0.408554 -23.6793 0.375471 -0.298043 -3.66668 0.375483 -0.298039 89.0139 -30.0727 -108.676 42.3856 -7.96273 -0.672951 1.37755 -25.5793 -15.9214 -23.1685 -0.414146 -10.0016 -86.702 -56.2183 84.608 -11.9091 7.7924 -16.9423 11.7283 10.2265 -20.6166 -1.52989 -0.117951 -8.24572 -6.77143 6.55581 9.15899 -3.33057 5.77089 2.39134 
38.0732 97.7767 24.9588 99.8447 -42.75 102.455 -178.512 0.357847 85.0923 -27.5065 20.1077 0.46062 76.935 7.9217 2.75177 2.39268 4.62338 -0.635477 -178.808 15.9979 88.3199 -42.3906 -8.57544 -7.13899 70.1176 -6.16346 -3.58053 15.5699 -0.761348 3.81843 -0.537797 8.10704 -90.4836 10.6557 -1.29371 -0.843438 -1.01482 -1.32955 -0.78569 -23.5511 -0.980426 -1.19325 -3.53848 -0.980426 -1.19325 90.473 -30.2895 -105.714 42.4182 -6.64769 3.26521 3.68864 -24.4806 -13.1949 -23.6922 -0.607374 -8.36894 -87.8139 -52.9159 82.5057 -12.8435 10.0395 -26.8169 10.6636 11.837 -17.7088 0.754946 -0.173992 -7.43197 -4.46541 6.05159 5.09177 -4.54577 5.39391 5.3068 
41.1476 97.7512 28.1361 96.5932 -32.3168 99.771 -176.842 -2.02689 87.9077 -27.6598 32.4564 0.88616 78.3074 9.32399 3.27046 -0.526452 6.31634 -1.60732 178.736 17.7882 90.7569 -24.9501 -13.8069 -4.1019 65.2539 -3.78632 0.396038 19.9431 0.810625 0.19516 -0.767551 8.17362 -90.6104 10.5175 -1.80907 -1.05175 -1.15256 -1.85361 -0.971098 -23.6911 -1.40936 -1.54684 -3.67842 -1.40938 -1.54684 90.6291 -31.2423 -105.067 41.8549 -5.95299 6.72567 5.08948 -23.407 -11.1073 -22.6671 -0.508073 -8.74977 -88.4322 -49.426 80.9651 -15.6899 13.1325 -34.9545 10.1958 14.5298 -16.3993 0.467155 -0.169397 -7.57421 -1.4332 4.78303 0.603096 -5.23584 4.499 6.08179 
45.3736 96.8411 31.4329 95.1223 -26.0298 97.4892 -175.43 -4.28909 89.6172 -28.3779 40.9499 0.382476 79.2595 10.7545 4.46495 -0.383756 6.95274 -2.18939 176.856 17.9954 93.9946 -8.86876 -15.9113 -1.5318 62.5098 -2.16229 0.359953 29.5051 -0.217225 0.345089 -0.844562 8.2005 -90.5389 10.4653 -1.92947 -0.900081 -1.20451 -1.96719 -0.814272 -23.7454 -1.56976 -1.43841 -3.73275 -1.56975 -1.43841 90.1241 -32.2029 -105.704 41.1638 -7.15082 7.94912 5.37995 -23.3549 -10.4976 -22.5483 -0.657331 -7.81844 -88.7811 -48.9956 80.3549 -17.685 15.1941 -36.5397 11.6866 17.0911 -19.3651 0.481873 -0.177131 -7.84491 0.623668 4.58957 -3.55812 -5.53573 4.83557 7.13176 
51.2978 95.5187 35.0129 94.123 -20.2358 96.1491 -173.339 -8.00713 92.507 -28.3167 49.3314 -0.160332 79.8149 12.1919 6.10375 -1.90336 7.50407 -2.35074 178.659 20.6529 96.4077 -10.918 -21.4161 -1.77701 61.2481 -1.28691 0.214891 31.1973 -0.115548 -0.335856 -1.05571 8.09627 -90.5305 10.6736 -2.34668 -0.840797 -0.995476 -2.38141 -0.736653 -23.5415 -1.98549 -1.50738 -3.52883 -1.98549 -1.50738 90.4475 -32.5035 -104.978 40.2588 -7.0294 7.30904 5.05854 -24.2021 -11.216 -21.5861 -0.474274 -9.37603 -88.9479 -49.3115 80.1654 -19.2841 18.0776 -33.9759 10.7604 17.0547 -19.2065 1.3757 -0.201126 -7.76009 1.56211 4.65375 -5.39162 -5.63369 5.20265 6.94175 
59.5466 94.766 38.5308 94.7833 -15.0147 97.1394 -170.832 -14.8108 96.9335 -26.866 53.742 1.6411 75.3735 9.79908 6.93989 8.23825 13.4289 -10.8504 -177.178 23.2531 98.2445 -25.6147 -24.1761 -4.77489 59.0744 -0.454413 0.425924 27.636 -0.674834 1.82284 -1.17722 8.01189 -90.8142 10.8354 -2.71991 -1.36349 -0.833255 -2.77729 -1.2424 -23.3788 -2.18443 -2.11803 -3.36614 -2.18444 -2.11803 90.8956 -32.8917 -103.99 38.4428 -5.9901 6.48772 3.44787 -24.4282 -13.7968 -22.3075 -0.555466 -8.835 -89.1718 -51.3373 80.2317 -22.4508 19.9636 -28.3381 6.93349 16.5836 -12.3856 0.448112 -0.14929 -6.73176 2.09299 4.85816 -3.76245 -5.89012 5.18325 6.08127 
